<svg xmlns="http://www.w3.org/2000/svg" xmlns:xlink="http://www.w3.org/1999/xlink" width="500" zoomAndPan="magnify" viewBox="0 0 375 374.999991" height="500" preserveAspectRatio="xMidYMid meet" version="1.0"><defs><g/></defs><rect x="-37.5" width="450" fill="#ffffff" y="-37.499999" height="449.999989" fill-opacity="1"/><rect x="-37.5" width="450" fill="#c4f135" y="-37.499999" height="449.999989" fill-opacity="1"/><path fill="#25392b" d="M 72.695312 315.753906 L 118.628906 187.382812 C 119.140625 185.957031 119.140625 184.390625 118.628906 182.96875 L 72.988281 59.296875 C 70.945312 53.742188 76.785156 48.613281 81.75 51.605469 L 300.097656 181.96875 C 304.1875 184.390625 304.1875 190.449219 300.097656 192.867188 L 81.53125 323.449219 C 76.640625 326.371094 70.796875 321.3125 72.695312 315.753906 " fill-opacity="1" fill-rule="nonzero"/><g fill="#c4f135" fill-opacity="1"><g transform="translate(165.082325, 262.939511)"><g><path d="M 9.8125 -14.546875 C 11.195312 -15.378906 12.078125 -16.441406 12.453125 -17.734375 C 12.835938 -19.035156 12.640625 -20.335938 11.859375 -21.640625 L 5 -33.0625 C 4.238281 -34.320312 3.195312 -35.085938 1.875 -35.359375 C 0.550781 -35.640625 -0.800781 -35.363281 -2.1875 -34.53125 L -6.15625 -32.15625 L 5.84375 -12.171875 Z M 2.859375 -1.71875 L -16.78125 -34.421875 L -6 -40.890625 C -4.28125 -41.929688 -2.566406 -42.625 -0.859375 -42.96875 C 0.835938 -43.3125 2.46875 -43.3125 4.03125 -42.96875 C 5.59375 -42.632812 7.039062 -41.976562 8.375 -41 C 9.707031 -40.03125 10.851562 -38.75 11.8125 -37.15625 L 18.671875 -25.734375 C 19.628906 -24.128906 20.226562 -22.503906 20.46875 -20.859375 C 20.71875 -19.210938 20.617188 -17.628906 20.171875 -16.109375 C 19.734375 -14.585938 18.960938 -13.144531 17.859375 -11.78125 C 16.765625 -10.425781 15.359375 -9.226562 13.640625 -8.1875 Z M 2.859375 -1.71875 "/></g></g></g><g fill="#c4f135" fill-opacity="1"><g transform="translate(192.338976, 246.568244)"><g><path d="M 3.625 -2.1875 L -16.015625 -34.890625 L 4.671875 -47.3125 L 8.21875 -41.40625 L -5.640625 -33.078125 L -1.390625 -26 L 10.875 -33.359375 L 14.421875 -27.453125 L 2.15625 -20.09375 L 6.90625 -12.1875 L 20.765625 -20.515625 L 24.3125 -14.609375 Z M 3.625 -2.1875 "/></g></g></g><g fill="#c4f135" fill-opacity="1"><g transform="translate(219.595627, 230.196977)"><g><path d="M 1.828125 -1.09375 L -17.8125 -33.796875 L -9.921875 -38.546875 L -0.65625 -30.65625 C -0.332031 -30.375 -0.0351562 -30.070312 0.234375 -29.75 C 0.515625 -29.425781 0.773438 -29.128906 1.015625 -28.859375 C 1.253906 -28.554688 1.484375 -28.242188 1.703125 -27.921875 L 2.0625 -28.140625 C 1.90625 -28.492188 1.757812 -28.859375 1.625 -29.234375 C 1.488281 -29.566406 1.34375 -29.929688 1.1875 -30.328125 C 1.039062 -30.722656 0.910156 -31.117188 0.796875 -31.515625 L -2.1875 -43.1875 L 5.8125 -47.984375 L 25.453125 -15.28125 L 19.484375 -11.703125 L 7.484375 -31.6875 C 6.972656 -32.53125 6.5 -33.398438 6.0625 -34.296875 C 5.632812 -35.191406 5.253906 -36.015625 4.921875 -36.765625 C 4.503906 -37.671875 4.128906 -38.535156 3.796875 -39.359375 L 3.25 -39.03125 C 3.53125 -38.226562 3.820312 -37.441406 4.125 -36.671875 C 4.34375 -35.972656 4.582031 -35.257812 4.84375 -34.53125 C 5.113281 -33.8125 5.316406 -33.175781 5.453125 -32.625 L 7.765625 -24.140625 L 2.40625 -20.921875 L -4.234375 -26.8125 C -4.671875 -27.175781 -5.140625 -27.640625 -5.640625 -28.203125 C -6.140625 -28.773438 -6.613281 -29.332031 -7.0625 -29.875 C -7.601562 -30.5 -8.160156 -31.148438 -8.734375 -31.828125 L -9.328125 -31.484375 C -8.753906 -30.804688 -8.148438 -30.078125 -7.515625 -29.296875 C -7.003906 -28.648438 -6.457031 -27.925781 -5.875 -27.125 C -5.289062 -26.320312 -4.742188 -25.5 -4.234375 -24.65625 L 7.765625 -4.671875 Z M 1.828125 -1.09375 "/></g></g></g><g fill="#c4f135" fill-opacity="1"><g transform="translate(246.852278, 213.825709)"><g><path d="M 3.140625 -15.171875 C 3.921875 -13.867188 4.957031 -13.078125 6.25 -12.796875 C 7.550781 -12.523438 8.914062 -12.816406 10.34375 -13.671875 C 11.757812 -14.523438 12.648438 -15.585938 13.015625 -16.859375 C 13.390625 -18.140625 13.1875 -19.429688 12.40625 -20.734375 L 4.453125 -33.953125 C 3.671875 -35.253906 2.628906 -36.039062 1.328125 -36.3125 C 0.0351562 -36.582031 -1.316406 -36.289062 -2.734375 -35.4375 C -4.160156 -34.582031 -5.054688 -33.519531 -5.421875 -32.25 C -5.796875 -30.976562 -5.59375 -29.691406 -4.8125 -28.390625 Z M -11.625 -24.296875 C -12.550781 -25.835938 -13.113281 -27.394531 -13.3125 -28.96875 C -13.519531 -30.539062 -13.390625 -32.070312 -12.921875 -33.5625 C -12.460938 -35.0625 -11.675781 -36.472656 -10.5625 -37.796875 C -9.445312 -39.128906 -8.019531 -40.316406 -6.28125 -41.359375 C -4.5625 -42.398438 -2.851562 -43.097656 -1.15625 -43.453125 C 0.539062 -43.816406 2.15625 -43.847656 3.6875 -43.546875 C 5.226562 -43.253906 6.644531 -42.648438 7.9375 -41.734375 C 9.226562 -40.816406 10.335938 -39.585938 11.265625 -38.046875 L 19.21875 -24.828125 C 20.125 -23.316406 20.675781 -21.765625 20.875 -20.171875 C 21.070312 -18.578125 20.9375 -17.03125 20.46875 -15.53125 C 20.007812 -14.039062 19.226562 -12.625 18.125 -11.28125 C 17.019531 -9.9375 15.617188 -8.753906 13.921875 -7.734375 C 12.179688 -6.691406 10.457031 -5.988281 8.75 -5.625 C 7.050781 -5.269531 5.429688 -5.238281 3.890625 -5.53125 C 2.359375 -5.832031 0.945312 -6.445312 -0.34375 -7.375 C -1.632812 -8.300781 -2.742188 -9.535156 -3.671875 -11.078125 Z M -11.625 -24.296875 "/></g></g></g></svg>